<?xml version="1.0" standalone="no"?>
<!DOCTYPE svg PUBLIC "-//W3C//DTD SVG 20010904//EN"
 "http://www.w3.org/TR/2001/REC-SVG-20010904/DTD/svg10.dtd">
<svg version="1.0" xmlns="http://www.w3.org/2000/svg"
 width="896.000000pt" height="1026.000000pt" viewBox="0 0 896.000000 1026.000000"
 preserveAspectRatio="xMidYMid meet">
<metadata>
Created by potrace 1.12, written by Peter Selinger 2001-2015
</metadata>
<g transform="translate(0.000000,1026.000000) scale(0.100000,-0.100000)"
fill="#000000" stroke="none">
<path d="M4365 10217 c-247 -120 -4265 -2224 -4287 -2244 -30 -29 -41 -56 -55
-130 -6 -32 -5 -1056 3 -2727 13 -2674 13 -2675 34 -2715 11 -23 37 -52 58
-65 86 -55 4269 -2237 4304 -2245 20 -5 51 -20 67 -34 34 -28 89 -41 134 -31
34 7 4199 2260 4256 2302 18 14 42 43 52 66 18 40 19 127 19 2821 0 1922 -3
2792 -11 2818 -5 21 -22 51 -37 68 -36 39 -4359 2135 -4424 2144 -36 5 -54 0
-113 -28z m2050 -1297 c1058 -520 1924 -950 1925 -956 0 -11 -3731 -2104
-3750 -2104 -16 0 -3980 1979 -3980 1987 0 12 3842 2022 3862 2020 10 -1 884
-427 1943 -947z m2168 -6351 c-15 -13 -3793 -2059 -3803 -2059 -7 0 -10 811
-10 2519 l0 2519 1908 1066 1907 1066 3 -2552 c1 -1404 -1 -2555 -5 -2559z"/>
</g>
</svg>
